<svg width="16" height="20" viewBox="0 0 16 20" fill="none" xmlns="http://www.w3.org/2000/svg">
<path fill-rule="evenodd" clip-rule="evenodd" d="M10.7613 3.33398H5.23849L1.33325 7.23923V12.7621L5.23849 16.6673H10.7613L14.6666 12.7621V7.23923L10.7613 3.33398ZM8.00006 6.52065C7.73339 6.52065 7.46673 6.72065 7.46673 7.05398V10.3873C7.46673 10.7206 7.66673 10.9206 8.00006 10.9206C8.26673 10.9206 8.53339 10.7206 8.53339 10.3873V7.05398C8.53339 6.78731 8.33339 6.52065 8.00006 6.52065ZM8.86659 12.6207C8.86659 13.0994 8.47857 13.4874 7.99993 13.4874C7.52128 13.4874 7.13326 13.0994 7.13326 12.6207C7.13326 12.1421 7.52128 11.754 7.99993 11.754C8.47857 11.754 8.86659 12.1421 8.86659 12.6207Z" fill="#980C0C"/>
</svg>
