<svg width="16" height="16" viewBox="0 0 16 16" fill="none" xmlns="http://www.w3.org/2000/svg">
<path fill-rule="evenodd" clip-rule="evenodd" d="M5.62996 8.44563C5.40122 8.20587 5.02143 8.19693 4.78166 8.42566C4.5419 8.6544 4.53296 9.03419 4.7617 9.27396L6.47674 11.1038C6.72199 11.3609 7.13565 11.3498 7.36669 11.0799L11.0941 6.38877C11.3096 6.13703 11.2802 5.75827 11.0285 5.54279C10.7767 5.32731 10.398 5.3567 10.1825 5.60844L7.0793 9.55058C6.9882 9.66631 6.82054 9.68627 6.70482 9.59518C6.69405 9.5867 6.68395 9.57741 6.67461 9.56738L5.62996 8.44563ZM1.33307 8.00065C1.33307 4.33398 4.33307 1.33398 7.99973 1.33398C11.6664 1.33398 14.6664 4.33398 14.6664 8.00065C14.6664 11.6673 11.6664 14.6673 7.99973 14.6673C4.33307 14.6673 1.33307 11.6673 1.33307 8.00065Z" fill="#2D7738"/>
</svg>
