<svg width="16" height="16" viewBox="0 0 16 16" fill="none" xmlns="http://www.w3.org/2000/svg">
<path fill-rule="evenodd" clip-rule="evenodd" d="M10.7621 1.33398H5.23923L1.33398 5.23923V10.7621L5.23923 14.6673H10.7621L14.6673 10.7621V5.23923L10.7621 1.33398ZM8.00079 4.52065C7.73413 4.52065 7.46746 4.72065 7.46746 5.05398V8.38731C7.46746 8.72065 7.66746 8.92065 8.00079 8.92065C8.26746 8.92065 8.53413 8.72065 8.53413 8.38731V5.05398C8.53413 4.78731 8.33413 4.52065 8.00079 4.52065ZM8.86733 10.6207C8.86733 11.0994 8.47931 11.4874 8.00066 11.4874C7.52201 11.4874 7.13399 11.0994 7.13399 10.6207C7.13399 10.1421 7.52201 9.75405 8.00066 9.75405C8.47931 9.75405 8.86733 10.1421 8.86733 10.6207Z" fill="#980C0C"/>
</svg>
