<svg width="16" height="16" viewBox="0 0 16 16" fill="none" xmlns="http://www.w3.org/2000/svg">
<path fill-rule="evenodd" clip-rule="evenodd" d="M9.06659 4.86732C9.06659 4.4051 8.66214 4.00065 8.19992 4.00065C7.7377 4.00065 7.33325 4.4051 7.33325 4.86732C7.33325 5.32954 7.67992 5.73398 8.19992 5.73398C8.71992 5.73398 9.06659 5.32954 9.06659 4.86732ZM7.22214 11.334H9.44436C9.7777 11.334 9.99992 11.1767 9.99992 10.8621C9.99992 10.5475 9.7777 10.3377 9.44436 10.3377H8.99992C8.94436 10.3377 8.88881 10.2853 8.88881 10.2329V7.71601C8.88881 7.13923 8.38881 6.66732 7.7777 6.66732H7.22214C6.88881 6.66732 6.66658 6.87706 6.66658 7.19166C6.66658 7.50627 6.88881 7.71601 7.22214 7.71601H7.66658C7.72214 7.71601 7.7777 7.76844 7.7777 7.82088V10.1804C7.7777 10.2329 7.72214 10.2853 7.66658 10.2853H7.22214C6.88881 10.2853 6.66658 10.495 6.66658 10.8096C6.66658 11.1242 6.88881 11.334 7.22214 11.334ZM7.99992 1.33398C4.33325 1.33398 1.33325 4.33398 1.33325 8.00065C1.33325 11.6673 4.33325 14.6673 7.99992 14.6673C11.6666 14.6673 14.6666 11.6673 14.6666 8.00065C14.6666 4.33398 11.6666 1.33398 7.99992 1.33398Z" fill="#005AA3"/>
</svg>
